M48
; DRILL file KiCad 10.0.5-10.0.5~ubuntu24.04.1 date 2026-08-30T17:11:16
; FORMAT={-:-/ absolute / metric / decimal}
; #@! TF.CreationDate,2026-08-30T17:11:16+09:30
; #@! TF.GenerationSoftware,Kicad,Pcbnew,10.0.5-10.0.5~ubuntu24.04.1
; #@! TF.FileFunction,Plated,1,2,PTH
FMAT,2
METRIC
; #@! TA.AperFunction,Plated,PTH,ViaDrill
T1C0.410
; #@! TA.AperFunction,Plated,PTH,ComponentDrill
T2C0.410
; #@! TA.AperFunction,Plated,PTH,ComponentDrill
T3C1.140
%
G90
G05
T1
X2.6Y-3.72
X2.6Y-5.92
X2.6Y-8.12
X2.6Y-10.34
X2.6Y-12.54
X2.6Y-14.74
X2.6Y-25.24
X2.6Y-27.46
X2.6Y-29.66
X2.6Y-31.86
X2.6Y-34.06
X2.6Y-36.26
X4.8Y-3.72
X4.8Y-5.92
X4.8Y-8.12
X4.8Y-10.34
X4.8Y-12.54
X4.8Y-14.74
X4.8Y-25.24
X4.8Y-27.46
X4.8Y-29.66
X4.8Y-31.86
X4.8Y-34.06
X4.8Y-36.26
X7.0Y-3.72
X7.0Y-5.92
X7.0Y-8.12
X7.0Y-10.34
X7.0Y-12.54
X7.0Y-14.74
X7.0Y-16.94
X7.0Y-19.16
X7.0Y-20.84
X7.0Y-23.04
X7.0Y-25.24
X7.0Y-27.46
X7.0Y-29.66
X7.0Y-31.86
X7.0Y-34.06
X7.0Y-36.26
X9.2Y-3.72
X9.2Y-5.92
X9.2Y-8.12
X9.2Y-10.34
X9.2Y-12.54
X9.2Y-14.74
X9.2Y-16.94
X9.2Y-19.16
X9.2Y-20.84
X9.2Y-23.04
X9.2Y-25.24
X9.2Y-27.46
X9.2Y-29.66
X9.2Y-31.86
X9.2Y-34.06
X9.2Y-36.26
X11.4Y-3.72
X11.4Y-5.92
X11.4Y-8.12
X11.4Y-10.34
X11.4Y-12.54
X11.4Y-14.74
X11.4Y-16.94
X11.4Y-19.16
X11.4Y-20.84
X11.4Y-23.04
X11.4Y-25.24
X11.4Y-27.46
X11.4Y-29.66
X11.4Y-31.86
X11.4Y-34.06
X11.4Y-36.26
X13.6Y-3.72
X13.6Y-5.92
X13.6Y-8.12
X13.6Y-10.34
X13.6Y-12.54
X13.6Y-14.74
X13.6Y-16.94
X13.6Y-19.16
X13.6Y-20.84
X13.6Y-23.04
X13.6Y-25.24
X13.6Y-27.46
X13.6Y-29.66
X13.6Y-31.86
X13.6Y-34.06
X13.6Y-36.26
X15.8Y-3.72
X15.8Y-5.92
X15.8Y-8.12
X15.8Y-10.34
X15.8Y-12.54
X15.8Y-14.74
X15.8Y-16.94
X15.8Y-19.16
X15.8Y-20.84
X15.8Y-23.04
X15.8Y-25.24
X15.8Y-27.46
X15.8Y-29.66
X15.8Y-31.86
X15.8Y-34.06
X15.8Y-36.26
X18.0Y-3.72
X18.0Y-3.72
X18.0Y-5.92
X18.0Y-8.12
X18.0Y-10.34
X18.0Y-12.54
X18.0Y-14.74
X18.0Y-16.94
X18.0Y-19.16
X18.0Y-20.84
X18.0Y-23.04
X18.0Y-23.04
X18.0Y-25.24
X18.0Y-25.24
X18.0Y-27.44
X18.0Y-27.46
X18.0Y-29.66
X18.0Y-29.66
X18.0Y-31.86
X18.0Y-31.86
X18.0Y-34.06
X18.0Y-34.06
X18.0Y-36.26
X20.2Y-3.72
X20.2Y-5.92
X20.2Y-8.12
X20.2Y-10.34
X20.2Y-12.54
X20.2Y-14.74
X20.2Y-16.94
X20.2Y-23.04
X20.2Y-25.24
X20.2Y-27.44
X20.2Y-29.66
X20.2Y-31.86
X20.2Y-34.06
X20.2Y-36.26
X22.4Y-3.72
X22.4Y-5.92
X22.4Y-8.12
X22.4Y-10.34
X22.4Y-12.54
X22.4Y-14.74
X22.4Y-16.94
X22.4Y-23.04
X22.4Y-25.24
X22.4Y-27.44
X22.4Y-29.66
X22.4Y-31.86
X22.4Y-34.06
X22.4Y-36.26
X24.6Y-3.72
X24.6Y-5.92
X24.6Y-8.12
X24.6Y-10.34
X24.6Y-12.54
X24.6Y-14.74
X24.6Y-16.94
X24.6Y-23.04
X24.6Y-25.24
X24.6Y-27.44
X24.6Y-29.66
X24.6Y-31.86
X24.6Y-34.06
X24.6Y-36.26
X26.8Y-3.72
X26.8Y-5.92
X26.8Y-8.12
X26.8Y-10.34
X26.8Y-12.54
X26.8Y-14.74
X26.8Y-16.94
X26.8Y-23.04
X26.8Y-25.24
X26.8Y-27.44
X26.8Y-29.66
X26.8Y-31.86
X26.8Y-34.06
X26.8Y-36.26
X28.98Y-20.85
X29.0Y-3.72
X29.0Y-5.92
X29.0Y-8.12
X29.0Y-10.34
X29.0Y-12.54
X29.0Y-14.74
X29.0Y-16.94
X29.0Y-23.04
X29.0Y-25.24
X29.0Y-27.44
X29.0Y-29.66
X29.0Y-31.86
X29.0Y-34.06
X29.0Y-36.26
X29.02Y-19.13
X31.18Y-20.85
X31.2Y-3.72
X31.2Y-5.92
X31.2Y-8.12
X31.2Y-10.34
X31.2Y-12.54
X31.2Y-14.74
X31.2Y-16.94
X31.2Y-19.14
X31.2Y-23.04
X31.2Y-25.24
X31.2Y-27.44
X31.2Y-29.66
X31.2Y-31.86
X31.2Y-34.06
X31.2Y-36.26
X33.38Y-20.85
X33.4Y-3.72
X33.4Y-5.92
X33.4Y-8.12
X33.4Y-10.34
X33.4Y-12.54
X33.4Y-14.74
X33.4Y-16.94
X33.4Y-16.94
X33.4Y-19.14
X33.4Y-23.04
X33.4Y-25.24
X33.4Y-27.44
X33.4Y-29.66
X33.4Y-31.86
X33.4Y-34.06
X33.4Y-36.26
X34.93Y-24.44
X35.13Y-18.67
X35.15Y-3.43
X35.16Y-21.25
X35.21Y-15.34
X35.4Y-5.53
X35.48Y-9.24
X35.6Y-12.54
X35.6Y-27.44
X35.6Y-29.66
X35.6Y-31.86
X35.6Y-34.06
X35.6Y-36.26
X36.38Y-19.99
X36.61Y-26.12
X36.64Y-22.75
X36.78Y-17.23
X36.79Y-13.83
X36.88Y-7.68
X36.93Y-10.57
X36.99Y-3.87
X37.02Y-35.28
X37.24Y-32.82
X37.38Y-30.02
X37.85Y-21.61
X37.88Y-18.48
X38.32Y-24.43
X38.35Y-6.23
X38.36Y-27.87
X38.4Y-15.63
X38.41Y-12.23
X38.46Y-2.84
X38.52Y-8.91
X38.95Y-37.21
X39.07Y-20.17
X39.17Y-34.75
X39.31Y-31.95
X39.38Y-4.72
X39.55Y-16.87
X39.55Y-23.23
X39.73Y-7.54
X40.07Y-26.18
X40.09Y-13.81
X40.1Y-10.41
X40.29Y-29.8
X41.28Y-24.91
X41.37Y-15.02
X41.4Y-2.74
X41.4Y-4.74
X41.4Y-6.96
X41.4Y-17.56
X41.4Y-20.14
X41.4Y-22.68
X41.4Y-33.04
X41.4Y-35.3
X41.4Y-37.5
X41.82Y-12.18
X41.83Y-8.78
X41.92Y-31.36
X42.0Y-28.11
X42.97Y-26.56
X43.07Y-13.31
X43.5Y-10.47
X43.51Y-7.07
X43.6Y-2.74
X43.6Y-4.74
X43.6Y-6.96
X43.6Y-15.35
X43.6Y-17.55
X43.6Y-20.13
X43.6Y-22.67
X43.6Y-24.87
X43.6Y-35.29
X43.6Y-37.49
X43.63Y-29.67
X43.66Y-32.77
X44.61Y-28.24
X44.72Y-11.69
X45.03Y-30.81
X45.74Y-9.16
X45.8Y-2.74
X45.8Y-4.74
X45.8Y-6.96
X45.8Y-13.04
X45.8Y-15.34
X45.8Y-17.54
X45.8Y-20.12
X45.8Y-22.66
X45.8Y-24.86
X45.8Y-24.86
X45.8Y-27.06
X45.8Y-33.04
X45.8Y-35.28
X45.8Y-37.48
X48.0Y-2.74
X48.0Y-4.74
X48.0Y-6.96
X48.0Y-13.04
X48.0Y-15.33
X48.0Y-17.53
X48.0Y-20.11
X48.0Y-22.65
X48.0Y-24.85
X48.0Y-24.85
X48.0Y-27.05
X48.0Y-33.04
X48.0Y-35.27
X48.0Y-37.47
X50.2Y-2.74
X50.2Y-4.74
X50.2Y-6.96
X50.2Y-13.04
X50.2Y-15.32
X50.2Y-17.52
X50.2Y-20.1
X50.2Y-22.64
X50.2Y-24.84
X50.2Y-24.84
X50.2Y-27.04
X50.2Y-33.04
X50.2Y-35.26
X50.2Y-37.46
X52.4Y-2.74
X52.4Y-4.74
X52.4Y-6.96
X52.4Y-13.05
X52.4Y-15.31
X52.4Y-17.51
X52.4Y-20.09
X52.4Y-22.63
X52.4Y-24.83
X52.4Y-24.83
X52.4Y-27.03
X52.4Y-33.05
X52.4Y-35.25
X52.4Y-37.45
X54.6Y-2.74
X54.6Y-4.74
X54.6Y-6.96
X54.6Y-9.16
X54.6Y-10.84
X54.6Y-13.04
X54.6Y-15.3
X54.6Y-17.5
X54.6Y-20.08
X54.6Y-22.62
X54.6Y-24.82
X54.6Y-26.96
X54.6Y-29.16
X54.6Y-30.84
X54.6Y-33.04
X54.6Y-35.3
X54.6Y-37.5
X56.8Y-2.74
X56.8Y-4.74
X56.8Y-6.96
X56.8Y-9.16
X56.8Y-10.84
X56.8Y-13.04
X56.8Y-15.29
X56.8Y-17.49
X56.8Y-20.07
X56.8Y-22.61
X56.8Y-24.81
X56.8Y-26.96
X56.8Y-29.16
X56.8Y-30.84
X56.8Y-33.04
X56.8Y-35.29
X56.8Y-37.49
X59.0Y-2.74
X59.0Y-4.74
X59.0Y-6.96
X59.0Y-9.16
X59.0Y-10.84
X59.0Y-13.04
X59.0Y-15.28
X59.0Y-17.48
X59.0Y-20.06
X59.0Y-22.6
X59.0Y-24.8
X59.0Y-26.96
X59.0Y-29.16
X59.0Y-30.84
X59.0Y-33.04
X59.0Y-35.28
X59.0Y-37.48
X61.2Y-2.74
X61.2Y-4.74
X61.2Y-6.96
X61.2Y-9.16
X61.2Y-10.84
X61.2Y-13.04
X61.2Y-15.27
X61.2Y-17.47
X61.2Y-20.05
X61.2Y-22.59
X61.2Y-24.79
X61.2Y-26.96
X61.2Y-29.16
X61.2Y-30.84
X61.2Y-33.04
X61.2Y-35.27
X61.2Y-37.47
X63.4Y-2.74
X63.4Y-4.74
X63.4Y-6.96
X63.4Y-9.16
X63.4Y-10.84
X63.4Y-13.04
X63.4Y-15.26
X63.4Y-17.46
X63.4Y-20.04
X63.4Y-22.58
X63.4Y-24.78
X63.4Y-26.96
X63.4Y-29.16
X63.4Y-30.84
X63.4Y-33.04
X63.4Y-35.26
X63.4Y-37.46
X65.6Y-2.74
X65.6Y-4.74
X65.6Y-6.96
X65.6Y-9.16
X65.6Y-10.84
X65.6Y-13.05
X65.6Y-15.25
X65.6Y-17.45
X65.6Y-20.03
X65.6Y-22.57
X65.6Y-24.77
X65.6Y-26.96
X65.6Y-29.16
X65.6Y-30.84
X65.6Y-33.05
X65.6Y-35.25
X65.6Y-37.45
X67.8Y-2.74
X67.8Y-4.74
X67.8Y-6.96
X67.8Y-9.16
X67.8Y-10.84
X67.8Y-13.04
X67.8Y-15.24
X67.8Y-17.44
X67.8Y-20.02
X67.8Y-22.56
X67.8Y-24.76
X67.8Y-26.96
X67.8Y-29.16
X67.8Y-30.84
X67.8Y-33.04
X67.8Y-35.24
X67.8Y-37.44
X70.0Y-2.74
X70.0Y-4.74
X70.0Y-15.23
X70.0Y-17.43
X70.0Y-20.01
X70.0Y-22.55
X70.0Y-24.75
X70.0Y-35.23
X70.0Y-37.43
X72.2Y-2.74
X72.2Y-4.74
X72.2Y-15.22
X72.2Y-17.42
X72.2Y-20.0
X72.2Y-22.54
X72.2Y-24.74
X72.2Y-35.22
X72.2Y-37.42
T2
X0.65Y-19.16
X0.65Y-20.84
X2.825Y-19.16
X2.825Y-20.84
X5.0Y-19.16
X5.0Y-20.84
X70.0Y-9.16
X70.0Y-10.84
X70.0Y-29.16
X70.0Y-30.84
X72.175Y-9.16
X72.175Y-10.84
X72.175Y-29.16
X72.175Y-30.84
X74.35Y-9.16
X74.35Y-10.84
X74.35Y-29.16
X74.35Y-30.84
T3
X1.72Y-18.78
X1.72Y-21.22
X3.93Y-18.78
X3.93Y-21.22
X71.07Y-8.78
X71.07Y-11.22
X71.07Y-28.78
X71.07Y-31.22
X73.28Y-8.78
X73.28Y-11.22
X73.28Y-28.78
X73.28Y-31.22
M30
